<?xml version="1.0" standalone="no"?>
<!DOCTYPE svg PUBLIC "-//W3C//DTD SVG 20010904//EN"
 "http://www.w3.org/TR/2001/REC-SVG-20010904/DTD/svg10.dtd">
<svg version="1.0" xmlns="http://www.w3.org/2000/svg"
 width="1355.000000pt" height="354.000000pt" viewBox="0 0 1355.000000 354.000000"
 preserveAspectRatio="xMidYMid meet">

<g transform="translate(0.000000,354.000000) scale(0.100000,-0.100000)"
fill="#000000" stroke="none">
<path d="M621 2616 c10 -8 89 -13 83 -5 -3 5 -24 9 -46 9 -23 0 -39 -2 -37 -4z"/>
<path d="M574 2588 l-19 -23 25 20 c14 11 27 21 29 22 2 2 0 3 -6 3 -5 0 -18
-10 -29 -22z"/>
<path d="M1516 2602 c-3 -5 5 -7 18 -5 20 4 23 1 24 -27 0 -18 4 -35 7 -38 4
-4 5 11 3 33 -2 32 -7 41 -25 43 -11 2 -24 -1 -27 -6z"/>
<path d="M8725 2598 c-11 -6 -25 -19 -32 -27 -15 -20 -16 -76 -2 -103 9 -17 6
-25 -15 -47 -51 -53 -50 -130 0 -170 40 -31 123 -29 162 4 l29 24 23 -24 c16
-17 34 -25 57 -25 18 0 33 4 33 8 0 5 -17 28 -37 52 l-37 43 27 49 27 48 -35
0 c-28 0 -38 -5 -47 -25 -14 -31 -19 -31 -47 -1 l-23 24 33 30 c43 39 45 94 4
129 -29 25 -86 30 -120 11z m83 -74 c2 -11 -7 -29 -18 -39 -22 -19 -22 -19
-36 0 -15 20 -18 47 -7 59 15 15 58 1 61 -20z m-19 -165 c37 -43 33 -61 -15
-73 -54 -14 -91 41 -60 89 22 33 35 31 75 -16z"/>
<path d="M616 2583 c-20 -57 -24 -73 -15 -67 5 3 9 14 9 24 0 10 7 23 15 27 9
5 11 13 6 21 -6 11 -10 10 -15 -5z"/>
<path d="M8187 2592 c-20 -32 -125 -348 -118 -355 5 -5 19 -7 32 -5 16 2 26
14 37 46 l14 42 77 0 77 0 14 -42 c11 -32 21 -44 39 -46 13 -2 27 0 32 5 4 4
-20 87 -55 183 l-62 175 -41 3 c-23 2 -44 -1 -46 -6z m68 -132 c10 -30 20 -61
23 -67 3 -9 -10 -13 -47 -13 -28 0 -51 3 -51 7 0 21 45 142 51 136 3 -5 15
-33 24 -63z"/>
<path d="M8354 2585 c-13 -33 4 -45 61 -45 l56 0 -2 -152 -2 -153 29 0 29 0 3
153 3 152 54 0 c54 0 55 0 55 30 l0 30 -140 0 c-116 0 -142 -3 -146 -15z"/>
<path d="M8932 2573 c3 -26 7 -28 55 -31 l52 -3 3 -152 3 -152 30 0 30 0 3
153 3 152 54 0 c54 0 55 0 55 30 l0 30 -146 0 -145 0 3 -27z"/>
<path d="M4220 2535 c0 -33 -2 -35 -34 -35 -41 0 -63 -19 -71 -63 -13 -67 29
-116 81 -97 19 8 30 7 41 -1 11 -9 17 -9 26 0 9 9 9 14 -2 20 -9 6 -13 36 -13
110 1 81 -2 101 -14 101 -9 0 -14 -11 -14 -35z m-5 -115 c0 -52 -1 -55 -27
-58 -34 -4 -52 27 -44 73 7 36 19 45 51 42 17 -2 20 -9 20 -57z"/>
<path d="M723 2550 c4 -17 57 -27 57 -12 0 6 -9 8 -21 5 -12 -4 -25 0 -31 8
-8 12 -9 11 -5 -1z"/>
<path d="M3845 2551 c-3 -5 -1 -12 5 -16 12 -7 30 2 30 16 0 12 -27 12 -35 0z"/>
<path d="M943 2536 c15 -7 25 -15 22 -18 -4 -3 2 -5 12 -4 10 0 17 -5 15 -12
-1 -8 2 -11 8 -7 15 10 2 25 -36 41 -41 17 -60 17 -21 0z"/>
<path d="M10390 2405 l0 -145 140 0 c87 0 140 4 140 10 0 6 1 13 3 18 1 4 -52
9 -118 12 l-120 5 -3 123 c-2 114 -4 122 -22 122 -19 0 -20 -7 -20 -145z"/>
<path d="M10750 2430 c0 -114 1 -122 24 -145 38 -38 196 -47 267 -15 40 18 49
50 49 171 0 109 0 110 -22 107 -22 -3 -23 -8 -28 -116 -4 -85 -9 -115 -20
-122 -8 -5 -56 -10 -106 -10 -73 0 -94 3 -105 17 -10 11 -15 52 -17 125 -3 98
-5 108 -23 108 -18 0 -19 -9 -19 -120z"/>
<path d="M11227 2543 c-4 -3 -7 -69 -7 -145 0 -139 0 -139 23 -136 21 3 22 8
27 111 l5 108 55 -56 c85 -87 80 -86 160 -9 l70 67 0 -112 c0 -111 0 -112 23
-109 22 3 22 5 22 143 0 140 0 140 -24 143 -18 3 -40 -12 -95 -67 l-72 -71
-69 70 c-64 65 -99 83 -118 63z"/>
<path d="M11747 2543 c-3 -5 18 -7 46 -5 86 5 96 9 25 11 -37 0 -69 -2 -71 -6z"/>
<path d="M11928 2543 c18 -2 45 -2 60 0 15 2 0 4 -33 4 -33 0 -45 -2 -27 -4z"/>
<path d="M12135 2528 c-3 -13 -4 -77 -3 -143 3 -115 4 -120 25 -123 22 -3 22
0 25 107 l3 111 129 -111 c172 -147 170 -148 174 39 l3 142 -25 0 c-25 0 -25
0 -28 -106 l-3 -107 -126 107 c-130 109 -164 125 -174 84z"/>
<path d="M12549 2528 c9 -26 31 -36 31 -14 0 8 -9 20 -20 26 -17 9 -19 8 -11
-12z"/>
<path d="M1085 2520 c-17 -18 -17 -20 -2 -14 9 3 17 10 17 14 0 5 8 11 18 13
14 4 14 5 1 6 -9 0 -24 -8 -34 -19z"/>
<path d="M1196 2530 c12 -5 29 -19 38 -32 9 -12 16 -18 16 -12 0 15 -44 54
-61 53 -8 0 -4 -4 7 -9z"/>
<path d="M1315 2515 c-14 -13 -25 -32 -24 -42 0 -11 3 -13 6 -5 2 6 9 10 14 7
5 -4 6 2 2 11 -4 11 2 23 18 35 13 10 20 19 16 19 -4 0 -19 -11 -32 -25z"/>
<path d="M1438 2527 c12 -7 19 -17 15 -22 -4 -4 -2 -5 6 0 12 7 11 10 -4 22
-11 7 -24 13 -29 13 -6 -1 -1 -6 12 -13z"/>
<path d="M1588 2533 c7 -3 16 -2 19 1 4 3 -2 6 -13 5 -11 0 -14 -3 -6 -6z"/>
<path d="M1770 2531 c0 -4 11 -6 25 -3 14 2 25 6 25 8 0 2 -11 4 -25 4 -14 0
-25 -4 -25 -9z"/>
<path d="M1915 2523 c-5 -15 -4 -16 6 -5 31 30 39 14 36 -77 -1 -49 1 -84 5
-78 4 7 8 49 8 95 0 80 -1 82 -24 82 -14 0 -27 -8 -31 -17z"/>
<path d="M2025 2527 c-14 -11 -15 -16 -5 -22 9 -6 11 -4 5 5 -6 9 -4 12 7 8 9
-4 15 0 15 8 0 17 1 17 -22 1z"/>
<path d="M2198 2533 c7 -3 16 -2 19 1 4 3 -2 6 -13 5 -11 0 -14 -3 -6 -6z"/>
<path d="M4460 2521 c0 -11 -6 -22 -12 -25 -10 -5 -10 -7 0 -12 7 -3 12 -25
12 -54 0 -27 3 -56 6 -64 8 -22 39 -37 58 -30 23 9 20 22 -6 26 -20 3 -23 10
-26 61 -3 52 -1 57 18 57 11 0 20 5 20 10 0 6 -9 10 -20 10 -13 0 -20 7 -20
20 0 11 -7 20 -15 20 -8 0 -15 -9 -15 -19z"/>
<path d="M1658 2519 c-10 -5 -23 -20 -29 -32 l-10 -22 18 21 c10 12 27 26 38
32 11 6 16 11 10 11 -5 0 -18 -4 -27 -10z"/>
<path d="M11858 2523 c7 -3 16 -2 19 1 4 3 -2 6 -13 5 -11 0 -14 -3 -6 -6z"/>
<path d="M11945 2520 c-4 -6 7 -10 27 -10 25 0 29 3 18 10 -19 13 -37 13 -45
0z"/>
<path d="M12010 2519 c0 -5 5 -7 10 -4 6 3 10 8 10 11 0 2 -4 4 -10 4 -5 0
-10 -5 -10 -11z"/>
<path d="M12521 2519 c-1 -9 7 -23 17 -30 15 -12 16 -12 6 1 -6 8 -14 22 -17
30 -5 13 -6 12 -6 -1z"/>
<path d="M12591 2514 c0 -11 3 -14 6 -6 3 7 2 16 -1 19 -3 4 -6 -2 -5 -13z"/>
<path d="M2085 2509 c-16 -6 -14 -8 13 -8 33 -1 41 4 20 12 -7 2 -22 1 -33 -4z"/>
<path d="M2220 2509 c0 -5 11 -9 25 -9 13 0 29 -8 34 -17 6 -10 11 -13 11 -7
0 6 -6 16 -12 21 -19 15 -58 23 -58 12z"/>
<path d="M930 2499 c13 -6 28 -15 32 -22 6 -9 8 -9 8 0 0 14 -32 33 -52 32 -7
0 -2 -5 12 -10z"/>
<path d="M1119 2493 c-38 -46 -43 -54 -28 -48 8 3 19 15 24 28 14 31 59 35 79
5 9 -12 16 -18 16 -12 0 17 -35 44 -57 44 -11 0 -26 -8 -34 -17z"/>
<path d="M1343 2489 c-2 -23 3 -25 10 -4 4 8 3 16 -1 19 -4 3 -9 -4 -9 -15z"/>
<path d="M1378 2503 c7 -3 16 -2 19 1 4 3 -2 6 -13 5 -11 0 -14 -3 -6 -6z"/>
<path d="M1725 2501 c-3 -5 -2 -12 3 -15 5 -3 9 1 9 9 0 17 -3 19 -12 6z"/>
<path d="M1773 2450 c0 -36 2 -50 4 -32 2 17 2 47 0 65 -2 17 -4 3 -4 -33z"/>
<path d="M1813 2445 c0 -38 2 -53 4 -32 2 20 2 52 0 70 -2 17 -4 1 -4 -38z"/>
<path d="M870 2485 c-6 -8 -10 -19 -8 -24 1 -6 8 1 15 14 13 28 11 31 -7 10z"/>
<path d="M1913 2450 c0 -30 2 -43 4 -27 2 15 2 39 0 55 -2 15 -4 2 -4 -28z"/>
<path d="M2195 2489 c-4 -6 -5 -12 -2 -15 2 -3 7 2 10 11 7 17 1 20 -8 4z"/>
<path d="M2370 2406 l0 -96 60 47 c33 25 60 47 60 49 0 2 -27 24 -60 49 l-60
46 0 -95z"/>
<path d="M3580 2493 c0 -5 9 -39 18 -78 24 -94 45 -99 68 -16 10 34 20 59 23
55 3 -3 12 -28 21 -57 20 -66 45 -74 59 -20 26 98 29 123 16 123 -8 0 -19 -24
-28 -62 l-14 -63 -20 60 c-27 82 -45 83 -68 3 l-19 -63 -14 63 c-9 40 -19 62
-28 62 -8 0 -14 -3 -14 -7z"/>
<path d="M3850 2420 c0 -64 3 -80 15 -80 12 0 15 16 15 80 0 64 -3 80 -15 80
-12 0 -15 -16 -15 -80z"/>
<path d="M3940 2418 c0 -63 3 -78 15 -78 12 0 15 14 15 65 0 60 2 65 24 71 39
9 46 -2 46 -72 0 -50 3 -64 15 -64 12 0 15 13 15 61 0 88 -9 99 -75 97 l-55
-2 0 -78z"/>
<path d="M4315 2484 c-23 -23 -15 -45 25 -72 44 -30 45 -47 1 -48 -41 0 -52
-19 -17 -28 34 -8 73 8 81 35 8 23 -11 46 -60 75 -25 14 -10 34 26 34 16 0 29
5 29 10 0 16 -67 11 -85 -6z"/>
<path d="M4585 2491 c-3 -2 -5 -37 -5 -78 0 -57 3 -73 15 -73 10 0 15 16 17
62 3 56 5 63 27 68 43 10 36 29 -9 27 -22 -1 -43 -3 -45 -6z"/>
<path d="M4710 2485 c-18 -21 -24 -89 -11 -114 15 -27 54 -43 87 -35 37 9 31
35 -6 28 -32 -7 -60 8 -60 32 0 8 16 14 48 16 41 3 47 6 50 26 2 13 -4 32 -14
43 -20 23 -76 25 -94 4z m78 -32 c3 -20 -1 -23 -32 -23 -38 0 -47 15 -24 38
20 20 53 10 56 -15z"/>
<path d="M4894 2492 c-18 -11 -34 -49 -34 -77 0 -55 43 -95 80 -75 12 7 27 7
38 2 19 -10 42 -5 42 9 0 5 -7 9 -15 9 -12 0 -15 14 -15 70 l0 70 -42 0 c-24
0 -48 -4 -54 -8z m66 -67 c0 -42 -4 -57 -16 -62 -25 -10 -49 11 -52 45 -4 43
13 72 43 72 24 0 25 -3 25 -55z"/>
<path d="M5060 2419 c0 -62 3 -79 15 -79 11 0 15 16 17 68 3 64 4 67 28 67 24
0 25 -3 28 -67 2 -50 7 -68 17 -68 10 0 15 18 17 68 3 64 4 67 28 67 24 0 25
-3 28 -67 2 -52 6 -68 17 -68 12 0 15 14 15 61 0 94 -3 97 -115 97 l-95 -1 0
-78z"/>
<path d="M572 2474 c10 -10 20 -15 24 -12 3 4 -5 12 -18 18 -22 12 -22 12 -6
-6z"/>
<path d="M680 2480 c8 -5 24 -10 34 -10 26 0 18 6 -19 14 -22 5 -26 4 -15 -4z"/>
<path d="M1056 2475 c-3 -9 -5 -33 -5 -53 2 -33 2 -32 9 13 8 53 6 66 -4 40z"/>
<path d="M1558 2485 c-2 -3 -3 -41 0 -86 4 -80 4 -81 -18 -74 -15 5 -20 4 -16
-4 4 -6 16 -11 27 -11 19 0 20 6 18 90 -1 50 -3 90 -4 90 -1 0 -4 -2 -7 -5z"/>
<path d="M1679 2473 c-13 -17 -13 -17 6 -3 11 8 22 16 24 17 2 2 0 3 -6 3 -6
0 -17 -8 -24 -17z"/>
<path d="M2040 2400 c0 -74 -2 -80 -20 -80 -19 0 -21 6 -19 70 1 39 -1 73 -5
77 -3 3 -6 -30 -6 -75 l0 -82 30 0 30 0 0 85 c0 47 -2 85 -5 85 -3 0 -5 -36
-5 -80z"/>
<path d="M633 2460 c2 -8 14 -16 28 -17 19 -1 20 -1 4 4 -11 3 -24 10 -28 17
-6 7 -7 6 -4 -4z"/>
<path d="M748 2463 c6 -2 9 -10 6 -15 -4 -6 -2 -8 4 -4 11 7 27 -28 18 -42 -2
-4 -1 -14 5 -22 6 -11 9 -7 9 15 0 34 -24 75 -43 74 -9 0 -8 -2 1 -6z"/>
<path d="M810 2347 c0 -125 0 -127 23 -126 16 1 17 3 5 6 -15 4 -17 19 -16
119 1 63 -2 117 -5 121 -4 3 -7 -51 -7 -120z"/>
<path d="M973 2455 c-3 -9 -3 -18 -1 -21 3 -3 8 4 11 16 6 23 -1 27 -10 5z"/>
<path d="M1511 2454 c0 -11 3 -14 6 -6 3 7 2 16 -1 19 -3 4 -6 -2 -5 -13z"/>
<path d="M2142 2393 l-2 -83 28 1 c22 1 23 2 5 6 -20 4 -22 11 -26 81 l-3 77
-2 -82z"/>
<path d="M1023 2425 c0 -22 2 -30 4 -17 2 12 2 30 0 40 -3 9 -5 -1 -4 -23z"/>
<path d="M1332 2430 c0 -19 2 -27 5 -17 2 9 2 25 0 35 -3 9 -5 1 -5 -18z"/>
<path d="M690 2436 c0 -2 7 -7 16 -10 8 -3 12 -2 9 4 -6 10 -25 14 -25 6z"/>
<path d="M1251 2424 c0 -11 3 -14 6 -6 3 7 2 16 -1 19 -3 4 -6 -2 -5 -13z"/>
<path d="M2293 2390 c0 -30 2 -43 4 -27 2 15 2 39 0 55 -2 15 -4 2 -4 -28z"/>
<path d="M1660 2376 c0 -49 -2 -55 -22 -59 -20 -4 -19 -4 5 -6 27 -1 27 0 27
59 0 33 -2 60 -5 60 -3 0 -5 -24 -5 -54z"/>
<path d="M11740 2345 l0 -86 142 3 c126 3 143 5 146 20 3 16 -9 18 -115 20
l-118 3 -3 38 -3 37 86 0 c69 0 87 3 92 16 10 26 -17 34 -124 34 l-103 0 0
-85z"/>
<path d="M974 2409 c-3 -6 -2 -15 3 -20 5 -5 9 -1 9 11 0 23 -2 24 -12 9z"/>
<path d="M1138 2413 c7 -3 16 -2 19 1 4 3 -2 6 -13 5 -11 0 -14 -3 -6 -6z"/>
<path d="M1178 2413 c7 -3 16 -2 19 1 4 3 -2 6 -13 5 -11 0 -14 -3 -6 -6z"/>
<path d="M550 2396 c0 -2 7 -6 15 -10 8 -3 15 -1 15 4 0 6 -7 10 -15 10 -8 0
-15 -2 -15 -4z"/>
<path d="M601 2380 c14 -31 19 -36 19 -24 0 6 -7 19 -16 30 -14 18 -14 18 -3
-6z"/>
<path d="M860 2386 c0 -8 4 -17 9 -20 5 -4 7 3 4 14 -6 23 -13 26 -13 6z"/>
<path d="M1336 2377 c3 -10 9 -15 12 -12 3 3 0 11 -7 18 -10 9 -11 8 -5 -6z"/>
<path d="M996 2372 c-3 -5 1 -9 9 -9 8 0 12 4 9 9 -3 4 -7 8 -9 8 -2 0 -6 -4
-9 -8z"/>
<path d="M1070 2353 c14 -30 27 -36 34 -17 3 9 2 12 -5 9 -6 -4 -17 1 -25 11
-14 18 -14 18 -4 -3z"/>
<path d="M1832 2354 c9 -9 21 -15 27 -13 6 2 -2 10 -17 17 -25 11 -25 11 -10
-4z"/>
<path d="M5340 2361 c0 -7 -5 -9 -12 -5 -7 5 -8 3 -3 -5 5 -9 10 -10 18 -2 6
6 8 14 4 18 -4 3 -7 1 -7 -6z"/>
<path d="M639 2347 c5 -5 21 -7 37 -5 27 3 26 4 -8 9 -22 3 -34 1 -29 -4z"/>
<path d="M920 2350 c-23 -7 -23 -8 -3 -9 12 -1 25 4 28 9 3 6 5 10 3 9 -2 -1
-14 -5 -28 -9z"/>
<path d="M1368 2348 c6 -6 18 -8 28 -6 14 3 12 5 -9 10 -19 3 -25 2 -19 -4z"/>
<path d="M584 2333 c11 -13 26 -23 35 -22 14 0 14 1 1 6 -8 3 -24 13 -35 22
-20 16 -20 16 -1 -6z"/>
<path d="M980 2330 c-14 -11 -20 -20 -14 -20 6 0 19 9 29 20 23 25 17 25 -15
0z"/>
<path d="M1780 2346 c0 -2 8 -10 18 -17 15 -13 16 -12 3 4 -13 16 -21 21 -21
13z"/>
<path d="M1326 2325 c10 -8 23 -15 28 -15 6 0 1 7 -10 15 -10 8 -23 15 -28 15
-6 0 -1 -7 10 -15z"/>
<path d="M1915 2325 c-16 -8 -23 -14 -14 -15 8 0 24 7 35 15 23 18 18 18 -21
0z"/>
<path d="M887 2319 c7 -7 15 -10 18 -7 3 3 -2 9 -12 12 -14 6 -15 5 -6 -5z"/>
<path d="M2306 2321 c-3 -4 6 -8 20 -9 13 -1 24 0 24 2 0 7 -40 14 -44 7z"/>
<path d="M708 2313 c7 -3 16 -2 19 1 4 3 -2 6 -13 5 -11 0 -14 -3 -6 -6z"/>
<path d="M1118 2313 c7 -3 16 -2 19 1 4 3 -2 6 -13 5 -11 0 -14 -3 -6 -6z"/>
<path d="M1418 2313 c7 -3 16 -2 19 1 4 3 -2 6 -13 5 -11 0 -14 -3 -6 -6z"/>
<path d="M928 2303 c7 -3 16 -2 19 1 4 3 -2 6 -13 5 -11 0 -14 -3 -6 -6z"/>
<path d="M5554 1153 c-20 -43 -43 -94 -51 -113 l-16 -35 -20 43 c-13 25 -28
42 -38 42 -17 0 -17 -3 -2 -37 28 -69 43 -93 59 -93 9 0 37 47 74 126 33 70
60 131 60 135 0 5 -7 9 -15 9 -10 0 -30 -30 -51 -77z"/>
<path d="M4510 1159 l0 -40 38 3 c35 3 37 5 40 41 l3 37 -40 0 -41 0 0 -41z"/>
<path d="M819 1159 c-24 -24 -20 -65 8 -86 57 -44 127 43 75 90 -25 23 -58 21
-83 -4z"/>
<path d="M7835 1124 c-53 -27 -61 -40 -40 -64 18 -20 45 -27 45 -11 0 11 38
21 56 14 30 -11 14 -43 -38 -77 -78 -50 -118 -100 -118 -145 0 -20 6 -21 104
-21 99 0 104 1 110 23 3 12 6 25 6 30 0 4 -27 7 -60 7 -33 0 -60 4 -60 9 0 5
22 23 48 40 87 56 113 99 91 152 -22 53 -87 73 -144 43z"/>
<path d="M8255 975 l-30 -155 32 0 c27 0 34 4 39 28 17 75 25 102 34 107 6 3
10 11 10 18 0 8 -3 8 -12 -1 -7 -7 -16 -12 -22 -12 -5 0 -2 6 8 13 18 13 72
15 84 3 3 -4 -1 -40 -9 -81 l-15 -75 32 0 c37 0 38 2 54 107 13 81 5 107 -34
117 -27 7 -76 -8 -76 -23 0 -5 -6 -11 -14 -14 -12 -5 -13 0 -6 21 5 15 11 44
14 65 5 36 4 37 -27 37 l-32 0 -30 -155z m125 45 c0 -5 -5 -10 -11 -10 -5 0
-7 5 -4 10 3 6 8 10 11 10 2 0 4 -4 4 -10z m48 -45 c-3 -3 -9 2 -12 12 -6 14
-5 15 5 6 7 -7 10 -15 7 -18z m9 -37 c-3 -8 -6 -5 -6 6 -1 11 2 17 5 13 3 -3
4 -12 1 -19z"/>
<path d="M4104 1096 c-39 -17 -72 -59 -80 -101 -27 -144 148 -233 242 -122
l27 32 -37 3 c-24 2 -44 -2 -55 -12 -24 -22 -57 -20 -81 4 -35 35 -24 40 75
40 l95 0 0 31 c0 41 -26 94 -55 113 -35 23 -95 28 -131 12z m90 -62 c31 -31
20 -44 -39 -44 -59 0 -63 4 -39 38 18 26 56 29 78 6z"/>
<path d="M4925 1092 c-50 -24 -75 -66 -75 -127 0 -63 28 -108 82 -130 98 -39
198 27 198 132 0 103 -109 170 -205 125z m104 -68 c23 -30 27 -74 10 -107 -37
-69 -109 -37 -109 48 0 77 58 111 99 59z"/>
<path d="M5280 1103 c-8 -3 -23 -12 -32 -21 -16 -14 -18 -13 -18 1 0 13 -9 17
-40 17 l-40 0 0 -135 0 -135 40 0 40 0 0 88 c0 76 3 92 20 107 25 23 65 13 74
-17 3 -13 6 -58 6 -100 l0 -78 41 0 41 0 -4 108 c-2 69 -9 115 -18 129 -23 35
-70 51 -110 36z"/>
<path d="M3809 965 l46 -136 44 3 44 3 43 125 c24 69 43 128 44 133 0 4 -17 7
-39 7 l-38 0 -23 -80 c-13 -45 -26 -82 -29 -85 -4 -2 -18 34 -31 81 l-23 84
-42 0 -41 0 45 -135z"/>
<path d="M4318 965 l-3 -135 40 0 40 0 1 80 c1 88 17 120 61 120 20 0 23 5 23
35 0 42 -22 47 -64 14 l-26 -20 0 20 c0 17 -6 21 -34 21 l-35 0 -3 -135z"/>
<path d="M4510 965 l0 -135 40 0 40 0 0 135 0 135 -40 0 -40 0 0 -135z"/>
<path d="M4610 1070 c0 -29 0 -29 65 -32 l65 -3 -65 -73 c-49 -55 -65 -80 -65
-102 l0 -30 115 0 115 0 0 30 c0 29 0 29 -65 32 l-65 3 62 71 c49 55 63 79 63
103 l0 31 -112 0 -113 0 0 -30z"/>
<path d="M7647 1070 c-4 -16 -13 -30 -21 -30 -14 0 -26 -21 -26 -46 0 -9 5
-12 11 -8 9 5 10 -11 5 -59 -7 -58 -5 -68 13 -86 25 -25 76 -28 85 -5 11 28 7
42 -14 47 -22 6 -26 39 -10 82 8 20 15 26 30 22 13 -3 20 0 20 8 0 7 3 21 6
30 5 12 2 16 -12 15 -31 -4 -33 -1 -24 30 8 29 8 30 -24 30 -29 0 -34 -4 -39
-30z m23 -34 c0 -2 -7 -7 -16 -10 -8 -3 -12 -2 -9 4 6 10 25 14 25 6z m60 -26
c0 -5 -5 -10 -11 -10 -5 0 -7 5 -4 10 3 6 8 10 11 10 2 0 4 -4 4 -10z m-73
-87 c-3 -10 -5 -4 -5 12 0 17 2 24 5 18 2 -7 2 -21 0 -30z m-11 -42 c8 7 14 7
14 1 0 -5 -7 -15 -15 -22 -8 -7 -15 -10 -15 -7 0 3 -2 11 -3 19 -2 7 -2 9 1 5
2 -4 10 -3 18 4z"/>
<path d="M10592 1072 c-9 -7 -12 -42 -10 -143 l3 -134 57 -3 c80 -4 98 15 98
103 0 86 -21 110 -87 100 l-45 -7 4 46 c3 48 2 51 -20 38z m106 -114 c15 -15
16 -92 2 -119 -8 -14 -21 -19 -50 -19 l-40 0 0 65 c0 50 4 66 18 74 23 14 55
14 70 -1z"/>
<path d="M11415 1068 c-2 -7 -5 -26 -7 -43 -3 -28 -5 -30 -45 -27 -62 5 -83
-20 -83 -101 0 -76 18 -107 61 -107 17 0 39 5 50 10 13 7 19 7 19 0 0 -5 7
-10 15 -10 13 0 15 23 15 145 0 93 -4 145 -10 145 -6 0 -13 -6 -15 -12z m-7
-163 c3 -66 -9 -85 -59 -85 -31 0 -39 15 -39 71 0 62 14 81 58 77 l37 -3 3
-60z"/>
<path d="M7254 1040 c-12 -5 -25 -13 -29 -19 -10 -17 -25 -13 -19 4 5 11 -1
15 -25 15 -34 0 -30 7 -56 -118 -20 -100 -20 -102 15 -102 24 0 31 5 36 28 17
75 25 102 34 107 6 3 10 11 10 17 0 6 -9 3 -20 -7 -11 -10 -20 -14 -20 -8 0
10 54 53 67 53 4 0 -2 -7 -13 -15 -18 -14 -17 -14 14 -15 38 0 40 -11 18 -102
l-13 -58 32 0 c39 0 40 2 56 109 11 69 10 84 -2 96 -19 19 -59 26 -85 15z m40
-49 c-5 -6 -34 20 -34 30 0 5 8 1 18 -8 10 -10 17 -20 16 -22z m6 -136 c7 -9
8 -15 2 -15 -5 0 -12 7 -16 15 -3 8 -4 15 -2 15 2 0 9 -7 16 -15z"/>
<path d="M7450 1037 c-74 -26 -108 -140 -55 -192 19 -20 34 -25 78 -25 64 0
89 15 81 48 -5 17 -11 21 -23 16 -38 -16 -63 -16 -81 1 -11 10 -20 22 -20 27
0 4 34 8 75 8 l75 0 0 41 c0 24 -4 38 -10 34 -6 -3 -7 1 -4 10 4 11 -4 19 -30
30 -41 17 -41 17 -86 2z m15 -17 c3 -6 -1 -7 -9 -4 -18 7 -21 14 -7 14 6 0 13
-4 16 -10z m-21 -22 c-3 -5 -10 -6 -15 -3 -5 4 -13 -4 -18 -17 -6 -14 -10 -17
-10 -7 -1 8 4 20 9 25 13 13 41 14 34 2z m64 -10 c20 -20 14 -28 -22 -28 -18
0 -39 -7 -46 -15 -14 -17 -30 -20 -30 -5 0 5 3 9 8 8 4 -2 19 10 34 25 30 30
39 32 56 15z m35 -5 c-3 -7 -6 -13 -8 -13 -2 0 -5 6 -8 13 -3 8 1 14 8 14 7 0
11 -6 8 -14z m-3 -37 c0 -2 -7 -7 -16 -10 -8 -3 -12 -2 -9 4 6 10 25 14 25 6z
m-63 -12 c-3 -3 -12 -4 -19 -1 -8 3 -5 6 6 6 11 1 17 -2 13 -5z m-73 -12 c3
-5 -1 -9 -9 -9 -8 0 -12 4 -9 9 3 4 7 8 9 8 2 0 6 -4 9 -8z m-3 -39 c13 -16
12 -17 -3 -4 -17 13 -22 21 -14 21 2 0 10 -8 17 -17z m44 -13 c3 -6 -1 -7 -9
-4 -18 7 -21 14 -7 14 6 0 13 -4 16 -10z m105 -21 c0 -6 -4 -7 -10 -4 -5 3
-10 11 -10 16 0 6 5 7 10 4 6 -3 10 -11 10 -16z m-85 -9 c-3 -5 -12 -10 -18
-10 -7 0 -6 4 3 10 19 12 23 12 15 0z m35 0 c0 -5 -2 -10 -4 -10 -3 0 -8 5
-11 10 -3 6 -1 10 4 10 6 0 11 -4 11 -10z"/>
<path d="M8112 1039 c-27 -10 -21 -28 11 -30 18 -1 18 -2 4 -6 -10 -3 -25 1
-33 8 -13 10 -17 10 -25 -2 -8 -10 -9 -8 -4 9 6 19 3 22 -22 22 l-29 0 -27
-142 c-29 -154 -32 -182 -18 -159 6 10 13 11 29 2 19 -10 22 -8 27 26 12 68
15 75 30 63 16 -13 100 -9 100 5 0 6 8 21 18 35 9 13 17 20 17 16 0 -5 -7 -18
-17 -28 -9 -10 -11 -18 -5 -18 31 0 59 85 48 146 -6 28 -14 38 -41 50 -19 8
-36 14 -37 13 -2 0 -13 -4 -26 -10z m78 -34 c14 -19 14 -19 -2 -6 -10 7 -18
18 -18 24 0 6 1 8 3 6 1 -2 9 -13 17 -24z m-46 -31 c9 -8 16 -19 16 -24 0 -25
-23 -62 -45 -72 -36 -16 -66 12 -58 55 5 26 4 29 -11 24 -11 -4 -15 -3 -11 4
4 6 12 8 19 6 6 -3 20 1 31 9 24 18 40 18 59 -2z m-113 -111 c13 -16 12 -17
-4 -4 -9 8 -21 10 -25 6 -4 -4 -1 -10 6 -12 6 -3 12 -9 12 -15 0 -6 -6 -6 -15
2 -8 7 -15 19 -15 26 0 20 25 17 41 -3z m54 -13 c-3 -5 -12 -10 -18 -10 -7 0
-6 4 3 10 19 12 23 12 15 0z"/>
<path d="M8565 1032 c-63 -30 -94 -94 -73 -153 14 -39 49 -59 106 -59 95 0
158 91 120 175 -6 14 -15 25 -20 25 -7 0 -12 -23 -9 -42 2 -12 -9 -9 -24 6 -8
7 -11 17 -7 21 4 4 -4 4 -18 0 -29 -9 -25 -3 9 15 13 6 21 8 18 3 -3 -5 -2
-15 2 -22 6 -9 10 -7 14 8 6 25 3 27 -43 35 -24 4 -48 0 -75 -12z m-28 -61
c-7 -2 -18 -9 -26 -15 -12 -9 -13 -8 -6 4 18 31 30 38 37 26 4 -6 2 -13 -5
-15z m43 23 c0 -8 -19 -13 -24 -6 -3 5 1 9 9 9 8 0 15 -2 15 -3z m68 -16 c30
-30 -4 -108 -47 -108 -20 0 -51 30 -51 50 0 48 68 88 98 58z m46 -76 c2 -4 -4
-9 -15 -9 -11 -1 -17 2 -14 8 7 11 22 12 29 1z m-167 -16 c-5 -15 -24 -18 -24
-3 0 8 6 14 14 14 7 0 12 -5 10 -11z m30 -13 c-4 -3 -3 -11 3 -17 6 -8 3 -12
-11 -13 -21 -2 -22 -1 -13 21 3 9 11 16 17 16 6 0 7 -3 4 -7z m113 -17 c0 -11
-19 -15 -25 -6 -3 5 1 10 9 10 9 0 16 -2 16 -4z"/>
<path d="M8880 1039 c-14 -5 -31 -17 -39 -27 -12 -15 -13 -15 -8 6 4 19 1 22
-27 22 l-32 0 -19 -97 c-10 -54 -20 -104 -22 -110 -4 -9 6 -13 30 -13 35 0 36
1 43 48 9 60 29 101 57 111 36 14 45 -3 36 -61 -5 -29 -11 -63 -14 -75 -5 -20
-2 -23 28 -23 l34 0 12 69 c16 102 15 127 -11 145 -25 18 -33 19 -68 5z m-12
-29 c-7 -10 -14 -17 -17 -15 -4 4 18 35 25 35 2 0 -1 -9 -8 -20z m47 10 c3 -5
1 -10 -4 -10 -6 0 -11 5 -11 10 0 6 2 10 4 10 3 0 8 -4 11 -10z m-105 -30 c-7
-14 -7 -20 0 -20 5 0 10 5 10 10 0 6 5 10 12 10 8 0 6 -6 -5 -17 -16 -16 -18
-16 -34 1 -10 10 -13 16 -7 12 7 -3 14 1 18 9 3 8 8 15 11 15 3 0 1 -9 -5 -20z
m-15 -100 c-3 -5 -12 -10 -18 -10 -7 0 -6 4 3 10 19 12 23 12 15 0z m-38 -42
c-3 -8 -6 -5 -6 6 -1 11 2 17 5 13 3 -3 4 -12 1 -19z"/>
<path d="M9061 1032 c-58 -31 -88 -112 -60 -163 5 -11 15 -16 21 -13 7 4 8 3
4 -4 -17 -28 97 -44 140 -19 17 9 20 17 13 35 -10 25 -13 26 -41 11 -30 -16
-65 -3 -82 31 -8 17 -10 30 -5 30 5 0 14 11 19 25 5 14 20 27 35 31 14 3 25
10 25 14 0 4 8 11 17 14 16 6 16 6 0 -12 -9 -10 -15 -21 -13 -23 2 -2 6 -17
10 -34 7 -28 6 -28 -7 -11 -16 22 -61 16 -71 -9 -4 -12 6 -15 63 -15 l69 0 0
44 c0 52 -19 74 -69 82 -23 3 -46 -1 -68 -14z m31 -9 c-6 -2 -10 -9 -7 -13 3
-5 1 -11 -5 -15 -5 -3 -10 -2 -10 4 0 6 -7 8 -15 5 -8 -4 -15 -10 -15 -16 0
-5 4 -6 10 -3 6 3 7 -1 3 -10 -3 -9 -9 -13 -12 -8 -3 4 -10 11 -15 15 -9 7 51
48 69 47 6 0 4 -3 -3 -6z m93 -33 c3 -6 -1 -7 -9 -4 -18 7 -21 14 -7 14 6 0
13 -4 16 -10z m-110 -138 c-3 -3 -11 0 -18 7 -9 10 -8 11 6 5 10 -3 15 -9 12
-12z m85 9 c0 -5 -8 -15 -17 -22 -16 -12 -17 -12 -6 2 7 9 10 19 6 22 -3 4 -1
7 5 7 7 0 12 -4 12 -9z"/>
<path d="M10840 983 c-17 -12 -25 -13 -28 -5 -2 7 -10 12 -18 12 -11 0 -14
-20 -14 -100 0 -82 3 -100 15 -100 12 0 15 14 15 70 0 68 1 72 30 88 16 9 30
25 30 35 0 21 0 21 -30 0z"/>
<path d="M10932 990 c-45 -19 -58 -127 -21 -174 16 -21 29 -26 64 -26 36 0 48
5 65 28 18 22 21 37 18 85 -3 33 -11 64 -19 73 -19 19 -77 27 -107 14z m77
-34 c7 -9 11 -38 9 -73 l-3 -58 -40 0 -40 0 -3 58 c-3 65 8 87 43 87 12 0 28
-6 34 -14z"/>
<path d="M11113 993 c-27 -10 -11 -23 30 -23 48 0 67 -13 67 -47 0 -21 -5 -23
-44 -23 -66 0 -94 -38 -66 -91 9 -17 20 -19 75 -17 l65 3 0 87 c0 78 -2 88
-22 102 -21 15 -79 20 -105 9z m97 -143 c0 -23 -49 -42 -73 -28 -39 21 -8 58
44 50 20 -3 29 -10 29 -22z"/>
<path d="M11702 990 c-30 -13 -45 -55 -39 -113 6 -63 28 -87 83 -87 35 0 47 5
64 28 18 22 21 37 18 85 -3 33 -11 64 -19 73 -19 19 -77 27 -107 14z m77 -34
c7 -8 11 -38 9 -72 -3 -62 -21 -80 -65 -63 -20 7 -23 15 -23 67 0 32 5 63 12
70 16 16 53 15 67 -2z"/>
<path d="M11983 985 c-20 -14 -23 -25 -23 -90 0 -89 12 -105 76 -105 32 0 44
4 44 14 0 10 -14 16 -42 18 l-43 3 -3 58 c-4 69 8 87 55 87 23 0 33 4 31 13
-7 18 -70 20 -95 2z"/>
<path d="M12133 974 c-23 -23 -25 -31 -21 -91 5 -80 20 -95 92 -91 67 4 76 29
10 26 -36 -1 -50 3 -61 17 -22 31 -10 40 57 43 l62 3 -5 42 c-10 75 -82 103
-134 51z m97 -23 c18 -34 12 -41 -40 -41 -27 0 -50 2 -50 4 0 3 4 16 10 30 12
33 64 37 80 7z"/>
<path d="M12310 980 c0 -11 2 -20 4 -20 2 0 6 9 9 20 3 11 1 20 -4 20 -5 0 -9
-9 -9 -20z"/>
<path d="M12350 986 c0 -8 4 -17 9 -20 5 -4 7 3 4 14 -6 23 -13 26 -13 6z"/>
<path d="M12381 984 c0 -11 3 -14 6 -6 3 7 2 16 -1 19 -3 4 -6 -2 -5 -13z"/>
<path d="M11500 899 c31 -100 39 -113 65 -107 13 2 27 31 49 101 28 84 30 97
15 97 -12 0 -23 -22 -40 -80 -13 -44 -26 -80 -29 -80 -3 0 -17 35 -31 77 -16
50 -31 79 -41 81 -14 3 -12 -11 12 -89z"/>
</g>
</svg>
